<!DOCTYPE svg PUBLIC "-//W3C//DTD SVG 1.0//EN"
     "http://www.w3.org/TR/SVG/DTD/svg10.dtd">
      <svg
       xmlns="http://www.w3.org/2000/svg"
       xmlns:xlink="http://www.w3.org/1999/xlink"
       viewBox="0 0 484 240" width="484" height="240">
        <g transform="translate(167.51667022705078, 96.25),scale(1)" class="sc-ZucCM huEXFr"><g transform="translate(0, 0),scale(1)" class="sc-ZucCM bfuAlb"><path d="M 0 0 A 0 0 0 0 1 0 0 L 0 27.5 A 0 0 0 0 0 0 27.5 Z" fill="rgb(168, 94, 97)"></path><path d="M 120.95420866611424 -17.81257465133286 A 127.51667022705078 56.25 0 0 1 127.51667022705078 -1.3777276490407723e-14 L 0 0 A 0 0 0 0 0 0 0 Z" fill="#F0868A" stroke="#F0868A"></path><path d="M -127.51667022705078 27.500000000000007 A 127.51667022705078 56.25 0 0 1 -127.51667022705078 27.500000000000007 L -127.51667022705078 6.8886382452038615e-15 A 127.51667022705078 56.25 0 0 0 -127.51667022705078 6.8886382452038615e-15 Z" fill="rgb(168, 94, 97)"></path><circle cx="62.9326814191613" cy="-4.511567274124518" r="1" visibility="hidden"></circle></g><g transform="translate(0, 0),scale(1)" class="sc-ZucCM bfuAlb"><path d="M 0 0 A 0 0 0 0 1 0 0 L 0 27.5 A 0 0 0 0 0 0 27.5 Z" fill="rgb(170, 129, 71)"></path><path d="M -45.21803444190364 -52.59466365105458 A 127.51667022705078 56.25 0 0 1 120.95420866611424 -17.81257465133286 L 0 0 A 0 0 0 0 0 0 0 Z" fill="#F3B865" stroke="#F3B865"></path><path d="M -127.51667022705078 27.500000000000007 A 127.51667022705078 56.25 0 0 1 -127.51667022705078 27.500000000000007 L -127.51667022705078 6.8886382452038615e-15 A 127.51667022705078 56.25 0 0 0 -127.51667022705078 6.8886382452038615e-15 Z" fill="rgb(170, 129, 71)"></path><circle cx="27.332723990611463" cy="-25.409543473417006" r="1" visibility="hidden"></circle></g><g transform="translate(0, 0),scale(1)" class="sc-ZucCM bfuAlb"><path d="M 0 0 A 0 0 0 0 1 0 0 L 0 27.5 A 0 0 0 0 0 0 27.5 Z" fill="rgb(112, 138, 174)"></path><path d="M -88.33390294473055 -40.567637663089556 A 127.51667022705078 56.25 0 0 1 -45.21803444190364 -52.59466365105458 L 0 0 A 0 0 0 0 0 0 0 Z" fill="#A0C5F9" stroke="#A0C5F9"></path><path d="M -127.51667022705078 27.500000000000007 A 127.51667022705078 56.25 0 0 1 -127.51667022705078 27.500000000000007 L -127.51667022705078 6.8886382452038615e-15 A 127.51667022705078 56.25 0 0 0 -127.51667022705078 6.8886382452038615e-15 Z" fill="rgb(112, 138, 174)"></path><circle cx="-34.07665124898355" cy="-23.770971155919224" r="1" visibility="hidden"></circle></g><g transform="translate(0, 0),scale(1)" class="sc-ZucCM bfuAlb"><path d="M 0 0 A 0 0 0 0 1 0 0 L 0 27.5 A 0 0 0 0 0 0 27.5 Z" fill="rgb(155, 155, 155)"></path><path d="M 127.51667022705078 0 A 127.51667022705078 56.25 0 1 1 -88.33390294473055 -40.567637663089556 L 0 0 A 0 0 0 1 0 0 0 Z" fill="#DDDDDD" stroke="#DDDDDD"></path><path d="M 127.51667022705078 27.5 A 127.51667022705078 56.25 0 0 1 -127.51667022705078 27.500000000000007 L -127.51667022705078 6.8886382452038615e-15 A 127.51667022705078 56.25 0 0 0 127.51667022705078 0 Z" fill="rgb(155, 155, 155)"></path><circle cx="-24.991138464771126" cy="25.87442185290443" r="1" visibility="hidden"></circle></g></g><g transform="translate(167.51667022705078, 96.25),scale(1)" class="sc-ZucCM huEXFr"><text class="pie-label" dy=".33em" fill="#f3f3f3" font-size="Verdana, sans-serif" font-weight="bold" text-anchor="middle" x="62.9326814191613" y="-4.511567274124518">4</text><text class="pie-label" dy=".33em" fill="#f3f3f3" font-size="Verdana, sans-serif" font-weight="bold" text-anchor="middle" x="27.332723990611463" y="-25.409543473417006">20</text><text class="pie-label" dy=".33em" fill="#f3f3f3" font-size="Verdana, sans-serif" font-weight="bold" text-anchor="middle" x="-34.07665124898355" y="-23.770971155919224">5</text><text class="pie-label" dy=".33em" fill="#f3f3f3" font-size="Verdana, sans-serif" font-weight="bold" text-anchor="middle" x="-24.991138464771126" y="25.87442185290443">49</text></g>
      </svg>